<?xml version="1.0" standalone="no"?><!DOCTYPE svg PUBLIC "-//W3C//DTD SVG 1.1//EN" "http://www.w3.org/Graphics/SVG/1.1/DTD/svg11.dtd"><svg t="1589293072350" class="icon" viewBox="0 0 1024 1024" version="1.1" xmlns="http://www.w3.org/2000/svg" p-id="7049" xmlns:xlink="http://www.w3.org/1999/xlink" width="200" height="200"><defs><style type="text/css"></style></defs><path d="M171.140741 735.762963c-5.025185 0-10.05037-1.801481-14.032593-5.214815-6.352593-5.594074-8.912593-14.411852-6.352592-22.471111l40.77037-130.180741c-18.773333-21.902222-33.659259-45.700741-44.373333-71.016296-12.705185-30.340741-19.152593-62.103704-19.152593-94.435556 0-38.968889 9.291852-76.705185 27.496296-112.165925 17.445926-33.943704 42.382222-64.284444 73.955556-90.358519 64.284444-52.811852 149.522963-81.92 239.881481-81.92s175.597037 29.108148 239.786667 81.92c31.668148 25.979259 56.50963 56.414815 73.955556 90.358519 18.299259 35.460741 27.496296 73.197037 27.496296 112.165925s-9.291852 76.705185-27.496296 112.165926c-17.445926 33.943704-42.382222 64.284444-73.955556 90.358519C644.93037 667.780741 559.691852 696.888889 469.333333 696.888889c-51.863704 0-103.442963-9.955556-149.807407-28.728889l-139.282963 65.611852c-2.939259 1.327407-5.973333 1.991111-9.102222 1.991111zM469.333333 170.666667c-164.693333 0-298.666667 108.468148-298.666666 241.777777 0 53.001481 20.859259 103.348148 60.397037 145.635556 5.214815 5.594074 7.111111 13.653333 4.74074 20.954074l-29.866666 95.383704 103.917037-48.924445c5.594074-2.654815 12.041481-2.74963 17.635555-0.284444 43.235556 18.962963 92.254815 29.013333 141.748149 29.013333 164.693333 0 298.666667-108.468148 298.666666-241.777778S634.026667 170.666667 469.333333 170.666667z" p-id="7050"></path><path d="M824.414815 896c-4.456296 0-8.817778-1.327407-12.515556-4.077037l-85.333333-62.103704c-47.502222 15.739259-100.598519 18.014815-154.358519 6.731852-58.121481-12.231111-114.536296-39.917037-163.081481-80.118518-9.102222-7.49037-10.334815-20.954074-2.844445-30.056297 7.49037-9.102222 20.954074-10.334815 30.056297-2.844444C522.42963 795.022222 634.69037 819.484444 722.394074 786.014815c6.731852-2.56 14.317037-1.611852 20.195556 2.654815l51.863703 37.736296-10.998518-63.81037c-1.232593-7.016296 1.137778-14.127407 6.257778-19.057778l0.189629-0.18963c1.042963-0.948148 1.991111-1.896296 3.034074-2.939259 62.482963-62.482963 77.842963-162.133333 40.011852-260.171852-4.266667-10.998519 1.232593-23.324444 12.231111-27.591111s23.324444 1.232593 27.591111 12.231111c43.140741 111.786667 25.694815 226.607407-45.416296 301.321482l18.10963 104.675555c1.517037 8.533333-2.37037 17.161481-9.765926 21.712593-3.508148 2.37037-7.395556 3.413333-11.282963 3.413333z" p-id="7051"></path></svg>